<svg width="456" height="76" viewBox="0 0 456 76" fill="none" xmlns="http://www.w3.org/2000/svg">
<path d="M18.7453 2.875V37H11.1281V2.875H18.7453ZM29.1281 2.875V8.80469H0.956253V2.875H29.1281ZM37.8375 11.6406V37H30.5016V11.6406H37.8375ZM30.0563 5.07812C30.0563 4.01563 30.4313 3.14844 31.1813 2.47656C31.9313 1.78906 32.9156 1.44531 34.1344 1.44531C35.3531 1.44531 36.3375 1.78906 37.0875 2.47656C37.8531 3.14844 38.2359 4.01563 38.2359 5.07812C38.2359 6.125 37.8531 6.99219 37.0875 7.67969C36.3375 8.35156 35.3531 8.6875 34.1344 8.6875C32.9156 8.6875 31.9313 8.35156 31.1813 7.67969C30.4313 6.99219 30.0563 6.125 30.0563 5.07812ZM47.8828 17.0547V37H40.5469V11.6406H47.4375L47.8828 17.0547ZM46.9219 23.4297L45.0938 23.4766C45.0938 21.5703 45.3281 19.8594 45.7969 18.3438C46.2656 16.8281 46.9297 15.5391 47.7891 14.4766C48.6641 13.3984 49.7031 12.5781 50.9063 12.0156C52.125 11.4531 53.4688 11.1719 54.9375 11.1719C56.125 11.1719 57.2109 11.3437 58.1953 11.6875C59.1797 12.0313 60.0234 12.5859 60.7266 13.3516C61.4453 14.1016 61.9922 15.1016 62.3672 16.3516C62.7422 17.5859 62.9297 19.1094 62.9297 20.9219V37H55.5703V20.8984C55.5703 19.8359 55.4219 19.0156 55.125 18.4375C54.8281 17.8594 54.3906 17.4531 53.8125 17.2188C53.25 16.9844 52.5625 16.8672 51.75 16.8672C50.8906 16.8672 50.1563 17.0391 49.5469 17.3828C48.9375 17.7109 48.4375 18.1719 48.0469 18.7656C47.6563 19.3594 47.3672 20.0547 47.1797 20.8516C47.0078 21.6484 46.9219 22.5078 46.9219 23.4297ZM72.6703 0.976562V37H65.3344V0.976562H72.6703ZM88.7719 11.6406L77.7328 24.3906L71.8969 30.25L68.9672 25.3047L73.7016 19.1875L79.9594 11.6406H88.7719ZM81.0375 37L73.8891 25.3516L79.1391 21.25L89.4281 37H81.0375ZM100.364 37.4688C98.3484 37.4688 96.5438 37.1484 94.95 36.5078C93.3563 35.8672 92.0047 34.9844 90.8953 33.8594C89.8016 32.7188 88.9656 31.4062 88.3875 29.9219C87.8094 28.4375 87.5203 26.8516 87.5203 25.1641V24.2734C87.5203 22.3828 87.7859 20.6406 88.3172 19.0469C88.8484 17.4531 89.6219 16.0703 90.6375 14.8984C91.6688 13.7109 92.9344 12.7969 94.4344 12.1562C95.9344 11.5 97.6453 11.1719 99.5672 11.1719C101.364 11.1719 102.966 11.4688 104.372 12.0625C105.778 12.6406 106.966 13.4766 107.934 14.5703C108.903 15.6484 109.638 16.9531 110.138 18.4844C110.653 20 110.911 21.7031 110.911 23.5938V26.5938H90.4734V21.8828H103.739V21.3203C103.739 20.4297 103.575 19.6484 103.247 18.9766C102.934 18.3047 102.466 17.7891 101.841 17.4297C101.231 17.0547 100.458 16.8672 99.5203 16.8672C98.6297 16.8672 97.8875 17.0547 97.2938 17.4297C96.7 17.8047 96.2234 18.3359 95.8641 19.0234C95.5203 19.6953 95.2703 20.4844 95.1141 21.3906C94.9578 22.2812 94.8797 23.2422 94.8797 24.2734V25.1641C94.8797 26.1484 95.0125 27.0469 95.2781 27.8594C95.5438 28.6719 95.9344 29.3672 96.45 29.9453C96.9656 30.5234 97.5906 30.9766 98.325 31.3047C99.0594 31.6328 99.8953 31.7969 100.833 31.7969C101.989 31.7969 103.091 31.5781 104.138 31.1406C105.184 30.6875 106.091 29.9844 106.856 29.0312L110.278 32.9453C109.763 33.6953 109.036 34.4219 108.098 35.125C107.177 35.8125 106.067 36.375 104.77 36.8125C103.473 37.25 102.005 37.4688 100.364 37.4688ZM119.409 17.5469V37H112.097V11.6406H118.964L119.409 17.5469ZM126.98 11.4531L126.863 18.2734C126.55 18.2266 126.144 18.1875 125.644 18.1562C125.144 18.1094 124.714 18.0859 124.355 18.0859C123.417 18.0859 122.605 18.2031 121.917 18.4375C121.245 18.6562 120.683 18.9844 120.23 19.4219C119.792 19.8594 119.464 20.4062 119.245 21.0625C119.027 21.7031 118.917 22.4453 118.917 23.2891L117.534 22.6094C117.534 20.9375 117.698 19.4062 118.027 18.0156C118.355 16.625 118.831 15.4219 119.456 14.4062C120.081 13.375 120.847 12.5781 121.753 12.0156C122.659 11.4531 123.691 11.1719 124.847 11.1719C125.222 11.1719 125.605 11.1953 125.995 11.2422C126.386 11.2891 126.714 11.3594 126.98 11.4531Z" fill="#0F416F"/>
<path d="M147.572 25.5625H155.166C155.041 27.9062 154.4 29.9766 153.244 31.7734C152.103 33.5547 150.517 34.9531 148.486 35.9688C146.455 36.9688 144.041 37.4688 141.244 37.4688C139.009 37.4688 137.009 37.0859 135.244 36.3203C133.478 35.5547 131.978 34.4609 130.744 33.0391C129.525 31.6016 128.588 29.875 127.931 27.8594C127.291 25.8281 126.97 23.5391 126.97 20.9922V18.9062C126.97 16.3594 127.306 14.0703 127.978 12.0391C128.65 10.0078 129.611 8.27344 130.861 6.83594C132.111 5.39844 133.611 4.29688 135.361 3.53125C137.111 2.76562 139.064 2.38281 141.22 2.38281C144.127 2.38281 146.58 2.90625 148.58 3.95312C150.58 5 152.127 6.4375 153.22 8.26562C154.33 10.0938 154.994 12.1797 155.213 14.5234H147.595C147.533 13.1953 147.283 12.0781 146.845 11.1719C146.408 10.25 145.736 9.55469 144.83 9.08594C143.923 8.61719 142.72 8.38281 141.22 8.38281C140.127 8.38281 139.166 8.58594 138.338 8.99219C137.525 9.39844 136.845 10.0312 136.298 10.8906C135.767 11.75 135.369 12.8437 135.103 14.1719C134.838 15.4844 134.705 17.0469 134.705 18.8594V20.9922C134.705 22.7891 134.822 24.3438 135.056 25.6562C135.291 26.9688 135.666 28.0547 136.181 28.9141C136.713 29.7734 137.392 30.4141 138.22 30.8359C139.048 31.2578 140.056 31.4688 141.244 31.4688C142.603 31.4688 143.736 31.2578 144.642 30.8359C145.548 30.3984 146.244 29.7422 146.728 28.8672C147.213 27.9922 147.494 26.8906 147.572 25.5625ZM163.969 17.5469V37H156.656V11.6406H163.523L163.969 17.5469ZM171.539 11.4531L171.422 18.2734C171.109 18.2266 170.703 18.1875 170.203 18.1562C169.703 18.1094 169.273 18.0859 168.914 18.0859C167.977 18.0859 167.164 18.2031 166.477 18.4375C165.805 18.6562 165.242 18.9844 164.789 19.4219C164.352 19.8594 164.023 20.4062 163.805 21.0625C163.586 21.7031 163.477 22.4453 163.477 23.2891L162.094 22.6094C162.094 20.9375 162.258 19.4062 162.586 18.0156C162.914 16.625 163.391 15.4219 164.016 14.4062C164.641 13.375 165.406 12.5781 166.312 12.0156C167.219 11.4531 168.25 11.1719 169.406 11.1719C169.781 11.1719 170.164 11.1953 170.555 11.2422C170.945 11.2891 171.273 11.3594 171.539 11.4531ZM183.623 37.4688C181.608 37.4688 179.803 37.1484 178.209 36.5078C176.616 35.8672 175.264 34.9844 174.155 33.8594C173.061 32.7188 172.225 31.4062 171.647 29.9219C171.069 28.4375 170.78 26.8516 170.78 25.1641V24.2734C170.78 22.3828 171.045 20.6406 171.577 19.0469C172.108 17.4531 172.881 16.0703 173.897 14.8984C174.928 13.7109 176.194 12.7969 177.694 12.1562C179.194 11.5 180.905 11.1719 182.827 11.1719C184.623 11.1719 186.225 11.4688 187.631 12.0625C189.038 12.6406 190.225 13.4766 191.194 14.5703C192.163 15.6484 192.897 16.9531 193.397 18.4844C193.913 20 194.17 21.7031 194.17 23.5938V26.5938H173.733V21.8828H186.998V21.3203C186.998 20.4297 186.834 19.6484 186.506 18.9766C186.194 18.3047 185.725 17.7891 185.1 17.4297C184.491 17.0547 183.717 16.8672 182.78 16.8672C181.889 16.8672 181.147 17.0547 180.553 17.4297C179.959 17.8047 179.483 18.3359 179.123 19.0234C178.78 19.6953 178.53 20.4844 178.373 21.3906C178.217 22.2812 178.139 23.2422 178.139 24.2734V25.1641C178.139 26.1484 178.272 27.0469 178.538 27.8594C178.803 28.6719 179.194 29.3672 179.709 29.9453C180.225 30.5234 180.85 30.9766 181.584 31.3047C182.319 31.6328 183.155 31.7969 184.092 31.7969C185.248 31.7969 186.35 31.5781 187.397 31.1406C188.444 30.6875 189.35 29.9844 190.116 29.0312L193.538 32.9453C193.022 33.6953 192.295 34.4219 191.358 35.125C190.436 35.8125 189.327 36.375 188.03 36.8125C186.733 37.25 185.264 37.4688 183.623 37.4688ZM202.809 29.9453L207.778 11.6406H212.395L210.825 19.7969L205.856 37H202.083L202.809 29.9453ZM200.536 11.6406L203.864 29.875L204.216 37H199.716L193.481 11.6406H200.536ZM216.895 29.5234L220.2 11.6406H227.255L221.067 37H216.567L216.895 29.5234ZM212.958 11.6406L217.973 29.8516L218.7 37H214.88L209.958 19.8203L208.458 11.6406H212.958Z" fill="#0D29A6"/>
</svg>
